<svg width="26" height="25" viewBox="0 0 26 25" fill="none" xmlns="http://www.w3.org/2000/svg">
<path d="M17.2996 2.08337H8.96631C5.51943 2.08337 2.71631 4.8865 2.71631 8.33337V21.875C2.71631 22.1513 2.82606 22.4163 3.02141 22.6116C3.21676 22.807 3.48171 22.9167 3.75798 22.9167H17.2996C20.7465 22.9167 23.5496 20.1136 23.5496 16.6667V8.33337C23.5496 4.8865 20.7465 2.08337 17.2996 2.08337ZM21.4663 16.6667C21.4663 18.9646 19.5976 20.8334 17.2996 20.8334H4.79964V8.33337C4.79964 6.03546 6.66839 4.16671 8.96631 4.16671H17.2996C19.5976 4.16671 21.4663 6.03546 21.4663 8.33337V16.6667Z" fill="black"/>
<path d="M7.92432 15.6114V17.6937H10.0066L15.766 11.9416L13.6847 9.86038L7.92432 15.6114ZM16.7472 10.9604L14.666 8.87704L16.2524 7.29163L18.3358 9.37392L16.7472 10.9604Z" fill="black"/>
</svg>
