<svg width="25" height="25" viewBox="0 0 25 25" fill="none" xmlns="http://www.w3.org/2000/svg">
<path d="M22.9163 20.8333H2.08301V18.75H3.12467V11.4906C3.12467 6.29477 7.32259 2.08331 12.4997 2.08331C17.6768 2.08331 21.8747 6.29477 21.8747 11.4906V18.75H22.9163V20.8333ZM5.20801 18.75H19.7913V11.4906C19.7913 7.44581 16.5268 4.16665 12.4997 4.16665C8.47259 4.16665 5.20801 7.44581 5.20801 11.4906V18.75ZM9.89551 21.875H15.1038C15.1038 22.5656 14.8295 23.228 14.3411 23.7164C13.8527 24.2048 13.1903 24.4791 12.4997 24.4791C11.809 24.4791 11.1466 24.2048 10.6582 23.7164C10.1699 23.228 9.89551 22.5656 9.89551 21.875Z" fill="#262626"/>
</svg>
