<svg width="25" height="25" viewBox="0 0 25 25" fill="none" xmlns="http://www.w3.org/2000/svg">
<path d="M14.6656 1.5625C14.831 1.56251 14.9922 1.61501 15.1258 1.71244C15.2595 1.80988 15.3588 1.94722 15.4094 2.10469L16.2688 4.775C16.6297 4.95156 16.975 5.15 17.3047 5.37344L20.0485 4.78281C20.2102 4.74827 20.3788 4.76597 20.5299 4.83337C20.6809 4.90076 20.8067 5.01436 20.8891 5.15781L23.0547 8.90625C23.1374 9.04962 23.1724 9.21555 23.1547 9.38011C23.137 9.54467 23.0675 9.69936 22.9563 9.82187L21.0735 11.9C21.1009 12.2985 21.1009 12.6984 21.0735 13.0969L22.9563 15.1781C23.0675 15.3006 23.137 15.4553 23.1547 15.6199C23.1724 15.7845 23.1374 15.9504 23.0547 16.0938L20.8891 19.8438C20.8065 19.9869 20.6806 20.1002 20.5296 20.1673C20.3785 20.2344 20.2101 20.2519 20.0485 20.2172L17.3047 19.6266C16.9766 19.8484 16.6297 20.0484 16.2703 20.225L15.4094 22.8953C15.3588 23.0528 15.2595 23.1901 15.1258 23.2876C14.9922 23.385 14.831 23.4375 14.6656 23.4375H10.3344C10.169 23.4375 10.0079 23.385 9.8742 23.2876C9.74054 23.1901 9.64125 23.0528 9.59064 22.8953L8.73283 20.2266C8.37286 20.0505 8.02566 19.8495 7.69377 19.625L4.95158 20.2172C4.78981 20.2517 4.62124 20.234 4.47017 20.1666C4.31911 20.0992 4.19333 19.9856 4.11095 19.8422L1.94533 16.0938C1.86263 15.9504 1.82761 15.7845 1.8453 15.6199C1.86299 15.4553 1.93249 15.3006 2.04377 15.1781L3.92658 13.0969C3.89931 12.6994 3.89931 12.3006 3.92658 11.9031L2.04377 9.82187C1.93249 9.69936 1.86299 9.54467 1.8453 9.38011C1.82761 9.21555 1.86263 9.04962 1.94533 8.90625L4.11095 5.15625C4.19355 5.01308 4.31943 4.8998 4.47048 4.8327C4.62153 4.7656 4.78997 4.74813 4.95158 4.78281L7.69377 5.375C8.02502 5.15156 8.37189 4.95 8.73283 4.77344L9.5922 2.10469C9.64265 1.94773 9.74146 1.81075 9.8745 1.71336C10.0075 1.61597 10.168 1.56317 10.3328 1.5625H14.6641H14.6656ZM14.0938 3.125H10.9063L10.0188 5.88594L9.42033 6.17812C9.12614 6.32209 8.84214 6.48601 8.57033 6.66875L8.0172 7.04375L5.1797 6.43125L3.58595 9.19375L5.53127 11.3469L5.48439 12.0094C5.46194 12.3361 5.46194 12.6639 5.48439 12.9906L5.53127 13.6531L3.58283 15.8063L5.17814 18.5688L8.01564 17.9578L8.56877 18.3313C8.84058 18.514 9.12458 18.6779 9.41877 18.8219L10.0172 19.1141L10.9063 21.875H14.0969L14.9875 19.1125L15.5844 18.8219C15.8783 18.6782 16.1618 18.5143 16.4328 18.3313L16.9844 17.9578L19.8235 18.5688L21.4172 15.8063L19.4703 13.6531L19.5172 12.9906C19.5397 12.6634 19.5397 12.335 19.5172 12.0078L19.4703 11.3453L21.4188 9.19375L19.8235 6.43125L16.9844 7.04063L16.4328 6.66875C16.1618 6.48565 15.8783 6.32171 15.5844 6.17812L14.9875 5.8875L14.0953 3.125H14.0938ZM12.5 7.8125C13.7432 7.8125 14.9355 8.30636 15.8146 9.18544C16.6937 10.0645 17.1875 11.2568 17.1875 12.5C17.1875 13.7432 16.6937 14.9355 15.8146 15.8146C14.9355 16.6936 13.7432 17.1875 12.5 17.1875C11.2568 17.1875 10.0645 16.6936 9.18545 15.8146C8.30638 14.9355 7.81252 13.7432 7.81252 12.5C7.81252 11.2568 8.30638 10.0645 9.18545 9.18544C10.0645 8.30636 11.2568 7.8125 12.5 7.8125ZM12.5 9.375C11.6712 9.375 10.8764 9.70424 10.2903 10.2903C9.70426 10.8763 9.37502 11.6712 9.37502 12.5C9.37502 13.3288 9.70426 14.1237 10.2903 14.7097C10.8764 15.2958 11.6712 15.625 12.5 15.625C13.3288 15.625 14.1237 15.2958 14.7097 14.7097C15.2958 14.1237 15.625 13.3288 15.625 12.5C15.625 11.6712 15.2958 10.8763 14.7097 10.2903C14.1237 9.70424 13.3288 9.375 12.5 9.375Z" fill="#48594E"/>
</svg>
