<svg width="26" height="25" viewBox="0 0 26 25" fill="none" xmlns="http://www.w3.org/2000/svg">
<path fill-rule="evenodd" clip-rule="evenodd" d="M21.6132 4.5C23.3661 4.5 24.7871 5.84315 24.7871 7.5V17.5C24.7871 19.1569 23.3661 20.5 21.6132 20.5H4.68563C2.93273 20.5 1.51172 19.1569 1.51172 17.5V7.5C1.51172 5.84315 2.93273 4.5 4.68563 4.5H21.6132ZM20.8227 6.5H5.47612L12.4939 11.7367C12.8782 12.0236 13.4206 12.0236 13.805 11.7367L20.8227 6.5ZM3.62766 7.6688V17.5C3.62766 18.0523 4.10133 18.5 4.68563 18.5H21.6132C22.1975 18.5 22.6711 18.0523 22.6711 17.5V7.66882L15.1161 13.3065C13.963 14.167 12.3358 14.167 11.1827 13.3065L3.62766 7.6688Z" fill="#A68A56"/>
</svg>
