<svg width="26" height="23" viewBox="0 0 26 23" fill="none" xmlns="http://www.w3.org/2000/svg">
<path d="M13.1328 21.2656L13.6719 22.3063C13.5053 22.3926 13.3204 22.4376 13.1328 22.4376C12.9452 22.4376 12.7603 22.3926 12.5938 22.3063L12.5813 22.3L12.5531 22.2844C12.3895 22.1998 12.228 22.1113 12.0687 22.0188C10.1644 20.9349 8.36768 19.6719 6.70312 18.2469C3.82812 15.7672 0.632812 12.0469 0.632812 7.59375C0.632812 3.43125 3.89219 0.5625 7.27344 0.5625C9.69063 0.5625 11.8094 1.81562 13.1328 3.71875C14.4563 1.81562 16.575 0.5625 18.9922 0.5625C22.3734 0.5625 25.6328 3.43125 25.6328 7.59375C25.6328 12.0469 22.4375 15.7672 19.5625 18.2469C17.7568 19.7907 15.7964 21.1437 13.7125 22.2844L13.6844 22.3L13.675 22.3047H13.6719L13.1328 21.2656ZM7.27344 2.90625C5.18594 2.90625 2.97656 4.725 2.97656 7.59375C2.97656 10.9531 5.44531 14.0688 8.23437 16.4719C9.75606 17.7734 11.396 18.93 13.1328 19.9266C14.8696 18.93 16.5096 17.7734 18.0312 16.4719C20.8203 14.0688 23.2891 10.9531 23.2891 7.59375C23.2891 4.725 21.0797 2.90625 18.9922 2.90625C16.8469 2.90625 14.9156 4.44687 14.2594 6.74375C14.1903 6.98934 14.0428 7.20561 13.8394 7.35965C13.6361 7.5137 13.3879 7.59706 13.1328 7.59706C12.8777 7.59706 12.6296 7.5137 12.4262 7.35965C12.2228 7.20561 12.0754 6.98934 12.0062 6.74375C11.35 4.44687 9.41875 2.90625 7.27344 2.90625Z" fill="black"/>
</svg>
