<svg width="46" height="46" viewBox="0 0 46 46" fill="none" xmlns="http://www.w3.org/2000/svg">
<path d="M22.9997 3.83331C12.4197 3.83331 3.83301 12.42 3.83301 23C3.83301 33.58 12.4197 42.1666 22.9997 42.1666C33.5797 42.1666 42.1663 33.58 42.1663 23C42.1663 12.42 33.5797 3.83331 22.9997 3.83331ZM22.9997 11.5C26.6988 11.5 29.708 14.5091 29.708 18.2083C29.708 21.9075 26.6988 24.9166 22.9997 24.9166C19.3005 24.9166 16.2913 21.9075 16.2913 18.2083C16.2913 14.5091 19.3005 11.5 22.9997 11.5ZM22.9997 38.3333C19.1088 38.3333 14.5088 36.7616 11.2313 32.8133C14.5886 30.1793 18.7324 28.7477 22.9997 28.7477C27.2669 28.7477 31.4108 30.1793 34.768 32.8133C31.4905 36.7616 26.8905 38.3333 22.9997 38.3333Z" fill="#EAF205"/>
</svg>
