<svg width="26" height="25" viewBox="0 0 26 25" fill="none" xmlns="http://www.w3.org/2000/svg">
<path fill-rule="evenodd" clip-rule="evenodd" d="M13.4607 2.02045C14.2957 1.62581 15.2723 1.59869 16.1304 1.9463L21.3517 4.0614C22.5187 4.53414 23.2754 5.61875 23.2754 6.81884V19.467C23.2754 21.6207 20.9455 23.0728 18.8512 22.2244L15.2969 20.7846C15.0108 20.6687 14.6853 20.6778 14.407 20.8093L9.81467 22.9796C8.97963 23.3743 8.00311 23.4014 7.14499 23.0538L1.92365 20.9387C0.756652 20.466 0 19.3813 0 18.1813V5.53313C0 3.37938 2.32981 1.92729 4.42418 2.77569L7.9785 4.2155C8.26454 4.33137 8.59005 4.32233 8.86839 4.19079L13.4607 2.02045ZM15.8696 4.01659V18.8532C15.9575 18.8805 16.0445 18.9115 16.1304 18.9463L19.6847 20.3861C20.3828 20.6689 21.1594 20.1849 21.1594 19.467V6.81884C21.1594 6.41881 20.9072 6.05727 20.5182 5.89969L15.8696 4.01659ZM13.7536 18.899V4.11808L9.81467 5.97964C9.71876 6.02497 9.62099 6.06545 9.52174 6.10107V20.882L13.4607 19.0205C13.5566 18.9751 13.6544 18.9346 13.7536 18.899ZM7.14499 6.05379C7.23083 6.08856 7.31785 6.11959 7.4058 6.14687V20.9835L2.75716 19.1004C2.36816 18.9428 2.11594 18.5813 2.11594 18.1813V5.53313C2.11594 4.81521 2.89255 4.33118 3.59067 4.61398L7.14499 6.05379Z" fill="#735826"/>
</svg>
