<svg width="25" height="26" viewBox="0 0 25 26" fill="none" xmlns="http://www.w3.org/2000/svg">
<path d="M21.875 12.6216C22.3633 12.9552 22.7987 13.3337 23.1812 13.7568C23.5636 14.18 23.8932 14.6439 24.1699 15.1484C24.4466 15.653 24.6501 16.186 24.7803 16.7476C24.9105 17.3091 24.9837 17.8828 25 18.4688C25 19.4372 24.8169 20.3486 24.4507 21.2031C24.0845 22.0576 23.5799 22.8022 22.937 23.437C22.2941 24.0718 21.5495 24.5723 20.7031 24.9385C19.8568 25.3047 18.9453 25.4919 17.9688 25.5C17.2282 25.5 16.512 25.3901 15.8203 25.1704C15.1286 24.9507 14.4938 24.6333 13.916 24.2183C13.3382 23.8032 12.8255 23.3068 12.3779 22.729C11.9303 22.1512 11.5845 21.5124 11.3403 20.8125H1.5625V2.0625H4.6875V0.5H6.25V2.0625H17.1875V0.5H18.75V2.0625H21.875V12.6216ZM3.125 3.625V6.75H20.3125V3.625H18.75V5.1875H17.1875V3.625H6.25V5.1875H4.6875V3.625H3.125ZM10.9741 19.25C10.9497 18.9977 10.9375 18.7373 10.9375 18.4688C10.9375 17.5003 11.1206 16.5889 11.4868 15.7344C11.853 14.8799 12.3576 14.1353 13.0005 13.5005C13.6434 12.8657 14.388 12.3652 15.2344 11.999C16.0807 11.6328 16.9922 11.4456 17.9688 11.4375C18.7826 11.4375 19.5638 11.5718 20.3125 11.8403V8.3125H3.125V19.25H10.9741ZM17.9688 23.9375C18.7256 23.9375 19.4336 23.7951 20.0928 23.5103C20.752 23.2254 21.3298 22.8348 21.8262 22.3384C22.3226 21.842 22.7132 21.2642 22.998 20.605C23.2829 19.9458 23.4294 19.2337 23.4375 18.4688C23.4375 17.7119 23.2951 17.0039 23.0103 16.3447C22.7254 15.6855 22.3348 15.1077 21.8384 14.6113C21.342 14.1149 20.7642 13.7243 20.105 13.4395C19.4458 13.1546 18.7337 13.0081 17.9688 13C17.2119 13 16.5039 13.1424 15.8447 13.4272C15.1855 13.7121 14.6077 14.1027 14.1113 14.5991C13.6149 15.0955 13.2243 15.6733 12.9395 16.3325C12.6546 16.9917 12.5081 17.7038 12.5 18.4688C12.5 19.2256 12.6424 19.9336 12.9272 20.5928C13.2121 21.252 13.6027 21.8298 14.0991 22.3262C14.5955 22.8226 15.1733 23.2132 15.8325 23.498C16.4917 23.7829 17.2038 23.9294 17.9688 23.9375ZM18.75 17.6875H21.0938V19.25H17.1875V14.5625H18.75V17.6875Z" fill="#262626"/>
</svg>
