<svg width="19" height="23" viewBox="0 0 19 23" fill="none" xmlns="http://www.w3.org/2000/svg">
<path d="M9.5 5.25C8.72742 5.25 7.97218 5.4791 7.3298 5.90832C6.68742 6.33755 6.18675 6.94762 5.8911 7.66139C5.59544 8.37517 5.51808 9.16058 5.66881 9.91832C5.81953 10.6761 6.19157 11.3721 6.73786 11.9184C7.28416 12.4647 7.98019 12.8367 8.73793 12.9874C9.49567 13.1382 10.2811 13.0608 10.9949 12.7652C11.7086 12.4695 12.3187 11.9688 12.7479 11.3264C13.1772 10.6841 13.4062 9.92883 13.4062 9.15625C13.4062 8.12025 12.9947 7.12668 12.2621 6.39411C11.5296 5.66155 10.536 5.25 9.5 5.25ZM9.5 11.5C9.03645 11.5 8.58331 11.3625 8.19788 11.105C7.81245 10.8475 7.51205 10.4814 7.33466 10.0532C7.15726 9.6249 7.11085 9.15365 7.20128 8.69901C7.29172 8.24436 7.51494 7.82675 7.84272 7.49897C8.1705 7.17119 8.58811 6.94797 9.04276 6.85753C9.4974 6.7671 9.96865 6.81351 10.3969 6.99091C10.8252 7.1683 11.1912 7.4687 11.4488 7.85413C11.7063 8.23956 11.8438 8.6927 11.8438 9.15625C11.8438 9.77785 11.5968 10.374 11.1573 10.8135C10.7177 11.2531 10.1216 11.5 9.5 11.5ZM9.5 0.5625C7.22159 0.565085 5.03724 1.47133 3.42616 3.08241C1.81507 4.69349 0.908835 6.87784 0.90625 9.15625C0.90625 12.2227 2.32324 15.4727 5.00781 18.5557C6.21408 19.9488 7.57173 21.2033 9.05566 22.2959C9.18702 22.3879 9.34352 22.4373 9.50391 22.4373C9.66429 22.4373 9.82079 22.3879 9.95215 22.2959C11.4333 21.2028 12.7884 19.9484 13.9922 18.5557C16.6729 15.4727 18.0938 12.2227 18.0938 9.15625C18.0912 6.87784 17.1849 4.69349 15.5738 3.08241C13.9628 1.47133 11.7784 0.565085 9.5 0.5625ZM9.5 20.6797C7.88574 19.4102 2.46875 14.7471 2.46875 9.15625C2.46875 7.29145 3.20954 5.50302 4.52816 4.18441C5.84677 2.86579 7.6352 2.125 9.5 2.125C11.3648 2.125 13.1532 2.86579 14.4718 4.18441C15.7905 5.50302 16.5312 7.29145 16.5312 9.15625C16.5312 14.7451 11.1143 19.4102 9.5 20.6797Z" fill="#BFBFBF"/>
</svg>
