<svg width="26" height="25" viewBox="0 0 26 25" fill="none" xmlns="http://www.w3.org/2000/svg">
<path d="M11.7898 7.5C11.7898 9.70914 9.89513 11.5 7.55792 11.5C5.22072 11.5 3.32604 9.70914 3.32604 7.5C3.32604 5.29086 5.22072 3.5 7.55792 3.5C9.89513 3.5 11.7898 5.29086 11.7898 7.5ZM5.41781 7.5C5.41781 8.61719 6.37597 9.52284 7.55792 9.52284C8.73987 9.52284 9.69803 8.61719 9.69803 7.5C9.69803 6.38281 8.73987 5.47716 7.55792 5.47716C6.37597 5.47716 5.41781 6.38281 5.41781 7.5Z" fill="#A68A56"/>
<path fill-rule="evenodd" clip-rule="evenodd" d="M2.66123 14.7378C3.90127 13.8886 5.54514 13.5 7.55792 13.5C9.5707 13.5 11.2146 13.8886 12.4546 14.7378C13.714 15.6004 14.4256 16.8477 14.7469 18.3079C15.1553 20.1647 13.4516 21.5 11.7898 21.5H3.32604C1.6642 21.5 -0.039496 20.1647 0.368968 18.3079C0.690211 16.8477 1.40179 15.6004 2.66123 14.7378ZM3.90275 16.3574C3.16624 16.8618 2.68145 17.6203 2.4406 18.7151C2.39952 18.9018 2.45446 19.0729 2.6048 19.2223C2.76575 19.3824 3.02681 19.5 3.32604 19.5H11.7898C12.089 19.5 12.3501 19.3824 12.511 19.2223C12.6614 19.0729 12.7163 18.9018 12.6752 18.7151C12.4344 17.6203 11.9496 16.8618 11.2131 16.3574C10.4572 15.8397 9.30553 15.5 7.55792 15.5C5.81031 15.5 4.65866 15.8397 3.90275 16.3574Z" fill="#A68A56"/>
<path d="M22.3695 7.5C22.3695 9.70914 20.4748 11.5 18.1376 11.5C15.8004 11.5 13.9057 9.70914 13.9057 7.5C13.9057 5.29086 15.8004 3.5 18.1376 3.5C20.4748 3.5 22.3695 5.29086 22.3695 7.5ZM15.9975 7.5C15.9975 8.61719 16.9557 9.52284 18.1376 9.52284C19.3196 9.52284 20.2777 8.61719 20.2777 7.5C20.2777 6.38281 19.3196 5.47716 18.1376 5.47716C16.9557 5.47716 15.9975 6.38281 15.9975 7.5Z" fill="#A68A56"/>
<path d="M15.5308 13.7689C14.8946 13.9165 14.6725 14.6168 15.0322 15.1344L15.0774 15.1995C15.3438 15.5829 15.8514 15.739 16.3275 15.6501C16.8455 15.5534 17.4447 15.5 18.1376 15.5C19.8853 15.5 21.0369 15.8397 21.7928 16.3574C22.5293 16.8618 23.0141 17.6203 23.255 18.7151C23.296 18.9018 23.2411 19.0729 23.0908 19.2223C22.9298 19.3824 22.6688 19.5 22.3695 19.5H17.0797C16.4954 19.5 16.0217 19.9477 16.0217 20.5C16.0217 21.0523 16.4954 21.5 17.0797 21.5H22.3695C24.0314 21.5 25.7351 20.1647 25.3266 18.3079C25.0054 16.8477 24.2938 15.6004 23.0343 14.7378C21.7943 13.8886 20.1504 13.5 18.1376 13.5C17.1848 13.5 16.3146 13.5871 15.5308 13.7689Z" fill="#A68A56"/>
</svg>
