<svg width="418" height="503" viewBox="0 0 418 503" fill="none" xmlns="http://www.w3.org/2000/svg">
<path d="M17.1665 13.5C17.1665 20.8638 23.1361 26.8333 30.4999 26.8333C37.8637 26.8333 43.8332 20.8638 43.8332 13.5C43.8332 6.1362 37.8637 0.166667 30.4999 0.166667C23.1361 0.166667 17.1665 6.1362 17.1665 13.5ZM161.5 203L162.434 205.319L161.5 203ZM334 213L332.069 211.413L332.069 211.413L334 213ZM402 365.5L399.749 366.588L399.749 366.588L402 365.5ZM388.667 489.5C388.667 496.864 394.636 502.833 402 502.833C409.364 502.833 415.333 496.864 415.333 489.5C415.333 482.136 409.364 476.167 402 476.167C394.636 476.167 388.667 482.136 388.667 489.5ZM23.0585 19.2344C22.2719 20.3692 22.5541 21.9267 23.6888 22.7133C24.8236 23.4999 26.3811 23.2177 27.1677 22.0829L23.0585 19.2344ZM18.2975 37.2001C18.9065 35.961 18.3958 34.4627 17.1566 33.8537C15.9175 33.2446 14.4193 33.7554 13.8102 34.9946L18.2975 37.2001ZM6.93282 51.8986C6.50172 53.2103 7.21557 54.6231 8.52725 55.0542C9.83893 55.4853 11.2517 54.7715 11.6828 53.4598L6.93282 51.8986ZM7.30685 70.4853C7.56338 69.1286 6.67154 67.8208 5.31487 67.5643C3.9582 67.3078 2.65044 68.1996 2.39391 69.5563L7.30685 70.4853ZM0.137986 87.635C0.0523051 89.013 1.09998 90.1996 2.47803 90.2853C3.85608 90.371 5.04267 89.3233 5.12835 87.9453L0.137986 87.635ZM5.11311 105.545C5.02994 104.167 3.84526 103.117 2.46705 103.2C1.08885 103.283 0.0390169 104.468 0.122191 105.846L5.11311 105.545ZM2.33775 123.927C2.59058 125.285 3.8959 126.18 5.25327 125.927C6.61063 125.675 7.50603 124.369 7.2532 123.012L2.33775 123.927ZM11.5747 140.058C11.1485 138.744 9.73842 138.025 8.42511 138.451C7.11181 138.877 6.39264 140.287 6.81879 141.601L11.5747 140.058ZM13.6343 158.535C14.2392 159.776 15.7357 160.292 16.9769 159.687C18.218 159.082 18.7338 157.586 18.1288 156.344L13.6343 158.535ZM26.9701 171.464C26.182 170.33 24.624 170.05 23.4904 170.838C22.3567 171.626 22.0766 173.184 22.8647 174.318L26.9701 171.464ZM34.5466 188.428C35.516 189.411 37.0989 189.422 38.082 188.453C39.0652 187.483 39.0763 185.9 38.1069 184.917L34.5466 188.428ZM51.4251 196.143C50.2903 195.357 48.7328 195.639 47.9463 196.774C47.1598 197.909 47.4422 199.466 48.5771 200.253L51.4251 196.143ZM64.6143 209.201C65.8798 209.753 67.3533 209.174 67.9054 207.909C68.4576 206.643 67.8792 205.17 66.6137 204.618L64.6143 209.201ZM83.1686 210.015C81.8214 209.713 80.4841 210.56 80.1818 211.907C79.8794 213.254 80.7264 214.591 82.0736 214.894L83.1686 210.015ZM100.264 217.306C101.643 217.37 102.813 216.304 102.877 214.924C102.941 213.545 101.875 212.375 100.495 212.311L100.264 217.306ZM117.947 211.769C116.574 211.913 115.577 213.143 115.721 214.516C115.864 215.889 117.094 216.886 118.467 216.742L117.947 211.769ZM136.503 213.647C137.847 213.33 138.679 211.984 138.362 210.64C138.045 209.296 136.698 208.464 135.354 208.781L136.503 213.647ZM152.191 203.834C150.888 204.29 150.201 205.716 150.657 207.019C151.113 208.322 152.539 209.009 153.842 208.553L152.191 203.834ZM170.532 202.121C171.819 201.623 172.459 200.175 171.961 198.887C171.462 197.599 170.015 196.96 168.727 197.458L170.532 202.121ZM184.974 191.437C183.672 191.898 182.99 193.326 183.45 194.628C183.911 195.929 185.339 196.612 186.641 196.151L184.974 191.437ZM202.936 190.691C204.253 190.275 204.983 188.871 204.567 187.554C204.151 186.238 202.747 185.507 201.43 185.923L202.936 190.691ZM218.155 180.995C216.823 181.358 216.038 182.732 216.401 184.064C216.764 185.396 218.138 186.182 219.47 185.819L218.155 180.995ZM236.08 181.698C237.428 181.398 238.278 180.062 237.978 178.715C237.678 177.367 236.343 176.517 234.995 176.817L236.08 181.698ZM252.131 173.509C250.768 173.73 249.842 175.013 250.062 176.376C250.283 177.739 251.567 178.666 252.93 178.445L252.131 173.509ZM269.905 176.314C271.28 176.196 272.299 174.985 272.181 173.609C272.062 172.233 270.851 171.214 269.475 171.333L269.905 176.314ZM286.947 170.656C285.566 170.637 284.431 171.74 284.412 173.121C284.393 174.501 285.497 175.636 286.877 175.655L286.947 170.656ZM303.777 177.044C305.14 177.265 306.424 176.339 306.645 174.976C306.866 173.613 305.941 172.329 304.578 172.108L303.777 177.044ZM321.745 176.883C320.476 176.338 319.006 176.926 318.462 178.195C317.917 179.464 318.505 180.933 319.774 181.478L321.745 176.883ZM332.693 190.715C333.54 191.805 335.11 192.003 336.201 191.156C337.291 190.309 337.488 188.738 336.641 187.648L332.693 190.715ZM340.494 206.143C340.88 204.818 340.118 203.43 338.792 203.044C337.467 202.659 336.079 203.421 335.693 204.746L340.494 206.143ZM326.717 216.974C325.686 217.893 325.595 219.473 326.514 220.504C327.433 221.534 329.013 221.625 330.044 220.706L326.717 216.974ZM316.13 230.116C317.356 229.482 317.837 227.974 317.203 226.747C316.569 225.521 315.061 225.04 313.835 225.674L316.13 230.116ZM299.216 231.756C297.91 232.202 297.212 233.623 297.658 234.93C298.104 236.237 299.525 236.934 300.832 236.488L299.216 231.756ZM285.182 241.233C286.511 240.859 287.285 239.478 286.911 238.149C286.537 236.82 285.156 236.046 283.827 236.42L285.182 241.233ZM268.175 241.013C266.862 241.44 266.143 242.85 266.569 244.163C266.996 245.477 268.406 246.195 269.719 245.769L268.175 241.013ZM255.138 251.729C256.354 251.075 256.809 249.558 256.154 248.343C255.499 247.127 253.983 246.673 252.767 247.327L255.138 251.729ZM239.472 258.119C238.624 259.208 238.82 260.779 239.909 261.627C240.999 262.475 242.57 262.279 243.418 261.189L239.472 258.119ZM237.613 274.823C237.846 273.462 236.931 272.17 235.57 271.937C234.21 271.704 232.918 272.619 232.685 273.98L237.613 274.823ZM233.157 291.408C233.526 292.738 234.904 293.517 236.235 293.147C237.565 292.777 238.344 291.399 237.974 290.069L233.157 291.408ZM246.173 302.385C245.113 301.501 243.537 301.643 242.652 302.703C241.767 303.764 241.91 305.34 242.97 306.225L246.173 302.385ZM258.073 314.677C259.361 315.176 260.809 314.536 261.307 313.248C261.805 311.96 261.165 310.512 259.877 310.014L258.073 314.677ZM275.436 314.65C274.091 314.336 272.747 315.171 272.433 316.516C272.119 317.86 272.954 319.205 274.298 319.519L275.436 314.65ZM290.712 322.763C292.073 322.996 293.365 322.082 293.598 320.722C293.831 319.361 292.917 318.068 291.557 317.835L290.712 322.763ZM307.903 320.446C306.538 320.236 305.261 321.172 305.051 322.537C304.841 323.901 305.777 325.178 307.142 325.388L307.903 320.446ZM323.485 327.978C324.847 328.207 326.136 327.288 326.365 325.927C326.594 324.565 325.675 323.276 324.314 323.047L323.485 327.978ZM340.723 326.129C339.373 325.841 338.045 326.702 337.757 328.052C337.469 329.403 338.33 330.731 339.68 331.019L340.723 326.129ZM355.554 335.018C356.877 335.414 358.27 334.662 358.666 333.34C359.062 332.017 358.31 330.624 356.988 330.228L355.554 335.018ZM372.865 336.075C371.607 335.505 370.126 336.062 369.556 337.319C368.985 338.577 369.542 340.058 370.8 340.629L372.865 336.075ZM384.639 348.652C385.745 349.478 387.312 349.251 388.138 348.145C388.964 347.039 388.737 345.472 387.631 344.646L384.639 348.652ZM399.799 356.913C398.996 355.79 397.434 355.531 396.311 356.335C395.189 357.139 394.93 358.7 395.733 359.823L399.799 356.913ZM402.926 373.74C403.445 375.019 404.903 375.635 406.183 375.116C407.462 374.597 408.078 373.138 407.558 371.859L402.926 373.74ZM412.714 387.281C412.358 385.947 410.988 385.154 409.654 385.51C408.32 385.866 407.527 387.236 407.883 388.57L412.714 387.281ZM411.021 403.916C411.219 405.282 412.488 406.229 413.854 406.031C415.22 405.832 416.167 404.564 415.969 403.198L411.021 403.916ZM417.423 419.357C417.372 417.977 416.212 416.899 414.832 416.95C413.453 417.001 412.375 418.161 412.426 419.541L417.423 419.357ZM412.218 435.251C412.132 436.629 413.18 437.816 414.558 437.901C415.936 437.987 417.123 436.939 417.208 435.561L412.218 435.251ZM415.447 451.656C415.661 450.292 414.728 449.013 413.364 448.8C412 448.586 410.721 449.519 410.507 450.883L415.447 451.656ZM407.359 466.292C407.019 467.63 407.829 468.99 409.167 469.33C410.505 469.67 411.866 468.86 412.205 467.522L407.359 466.292ZM407.404 483.022C407.887 481.729 407.23 480.289 405.937 479.806C404.644 479.322 403.203 479.979 402.72 481.273L407.404 483.022ZM28.5629 11.9195C26.6277 14.2912 24.7931 16.732 23.0585 19.2344L27.1677 22.0829C28.8293 19.686 30.5854 17.3496 32.4369 15.0805L28.5629 11.9195ZM13.8102 34.9946C11.1241 40.4596 8.83402 46.114 6.93282 51.8986L11.6828 53.4598C13.514 47.8882 15.7173 42.4497 18.2975 37.2001L13.8102 34.9946ZM2.39391 69.5563C1.26462 75.5286 0.514824 81.5741 0.137986 87.635L5.12835 87.9453C5.4925 82.0884 6.21687 76.2497 7.30685 70.4853L2.39391 69.5563ZM0.122191 105.846C0.489565 111.934 1.23002 117.98 2.33775 123.927L7.2532 123.012C6.18367 117.27 5.46817 111.428 5.11311 105.545L0.122191 105.846ZM6.81879 141.601C8.71114 147.433 10.9848 153.099 13.6343 158.535L18.1288 156.344C15.5851 151.125 13.3978 145.676 11.5747 140.058L6.81879 141.601ZM22.8647 174.318C26.3681 179.357 30.264 184.085 34.5466 188.428L38.1069 184.917C34.0335 180.786 30.3184 176.28 26.9701 171.464L22.8647 174.318ZM48.5771 200.253C53.5588 203.705 58.9073 206.711 64.6143 209.201L66.6137 204.618C61.2102 202.26 56.1454 199.414 51.4251 196.143L48.5771 200.253ZM82.0736 214.894C87.8591 216.192 93.925 217.012 100.264 217.306L100.495 212.311C94.4398 212.031 88.6631 211.248 83.1686 210.015L82.0736 214.894ZM118.467 216.742C124.289 216.133 130.302 215.111 136.503 213.647L135.354 208.781C129.351 210.198 123.547 211.183 117.947 211.769L118.467 216.742ZM153.842 208.553C156.672 207.563 159.536 206.486 162.434 205.319L160.566 200.681C157.738 201.82 154.946 202.87 152.191 203.834L153.842 208.553ZM162.434 205.319C165.169 204.218 167.868 203.152 170.532 202.121L168.727 197.458C166.042 198.497 163.322 199.571 160.566 200.681L162.434 205.319ZM186.641 196.151C192.245 194.17 197.676 192.353 202.936 190.691L201.43 185.923C196.115 187.602 190.63 189.438 184.974 191.437L186.641 196.151ZM219.47 185.819C225.24 184.246 230.775 182.877 236.08 181.698L234.995 176.817C229.609 178.014 223.997 179.402 218.155 180.995L219.47 185.819ZM252.93 178.445C258.938 177.473 264.593 176.772 269.905 176.314L269.475 171.333C264.032 171.802 258.253 172.518 252.131 173.509L252.93 178.445ZM286.877 175.655C293.148 175.743 298.772 176.232 303.777 177.044L304.578 172.108C299.304 171.253 293.434 170.746 286.947 170.656L286.877 175.655ZM319.774 181.478C325.831 184.076 330.047 187.309 332.693 190.715L336.641 187.648C333.362 183.426 328.388 179.733 321.745 176.883L319.774 181.478ZM335.693 204.746C335.034 207.012 333.831 209.268 332.069 211.413L335.931 214.587C338.078 211.976 339.627 209.125 340.494 206.143L335.693 204.746ZM332.069 211.413C330.408 213.433 328.618 215.279 326.717 216.974L330.044 220.706C332.128 218.848 334.099 216.817 335.931 214.587L332.069 211.413ZM313.835 225.674C309.212 228.062 304.289 230.025 299.216 231.756L300.832 236.488C306.053 234.706 311.221 232.652 316.13 230.116L313.835 225.674ZM283.827 236.42C278.522 237.914 273.213 239.378 268.175 241.013L269.719 245.769C274.639 244.171 279.83 242.74 285.182 241.233L283.827 236.42ZM252.767 247.327C247.595 250.113 243.013 253.568 239.472 258.119L243.418 261.189C246.419 257.332 250.393 254.286 255.138 251.729L252.767 247.327ZM232.685 273.98C232.233 276.622 232 279.456 232 282.5H237C237 279.711 237.213 277.16 237.613 274.823L232.685 273.98ZM232 282.5C232 285.693 232.392 288.657 233.157 291.408L237.974 290.069C237.341 287.791 237 285.281 237 282.5H232ZM242.97 306.225C247.14 309.704 252.29 312.44 258.073 314.677L259.877 310.014C254.415 307.901 249.794 305.407 246.173 302.385L242.97 306.225ZM274.298 319.519C279.517 320.738 285.03 321.789 290.712 322.763L291.557 317.835C285.929 316.87 280.521 315.838 275.436 314.65L274.298 319.519ZM307.142 325.388C312.562 326.222 318.032 327.062 323.485 327.978L324.314 323.047C318.821 322.124 313.315 321.279 307.903 320.446L307.142 325.388ZM339.68 331.019C345.129 332.181 350.449 333.49 355.554 335.018L356.988 330.228C351.724 328.652 346.268 327.311 340.723 326.129L339.68 331.019ZM370.8 340.629C375.859 342.923 380.508 345.567 384.639 348.652L387.631 344.646C383.159 341.307 378.186 338.488 372.865 336.075L370.8 340.629ZM395.733 359.823C397.239 361.927 398.583 364.177 399.749 366.588L404.251 364.412C402.959 361.741 401.469 359.245 399.799 356.913L395.733 359.823ZM399.749 366.588C400.896 368.96 401.954 371.346 402.926 373.74L407.558 371.859C406.546 369.367 405.445 366.883 404.251 364.412L399.749 366.588ZM407.883 388.57C409.253 393.701 410.283 398.831 411.021 403.916L415.969 403.198C415.205 397.932 414.137 392.611 412.714 387.281L407.883 388.57ZM412.426 419.541C412.624 424.907 412.534 430.163 412.218 435.251L417.208 435.561C417.534 430.319 417.627 424.898 417.423 419.357L412.426 419.541ZM410.507 450.883C409.648 456.373 408.565 461.541 407.359 466.292L412.205 467.522C413.448 462.626 414.562 457.306 415.447 451.656L410.507 450.883ZM402.72 481.273C401.708 483.981 400.699 486.383 399.736 488.44L404.264 490.56C405.29 488.368 406.351 485.842 407.404 483.022L402.72 481.273Z" fill="#EFF291"/>
</svg>
