<svg xmlns="http://www.w3.org/2000/svg" viewBox="0 0 67.54 76.97"><defs><style>.cls-1{fill:#f2e4a5;fill-rule:evenodd;}</style></defs><g id="Calque_2" data-name="Calque 2"><g id="Illu"><path class="cls-1" d="M60.53,13.71,66,10h0a1.61,1.61,0,0,0,.54-2L63.23.93A1.6,1.6,0,0,0,61.1.15a1.54,1.54,0,0,0-.42.28L49.3,9.06h0a1.6,1.6,0,0,0-.62,1.15c-.22,1.45.82,3.64,1.66,5.4.32.67.59,1.26.71,1.57v0C57.09,34.82,54.42,47,48.3,53.81a19.47,19.47,0,0,1-29.06,0c-6.13-6.82-8.79-19-2.73-36.63h0a.14.14,0,0,1,0-.06c.13-.32.39-.88.69-1.51,1.1-2.33,2.55-5.4,1-6.55h0L18.13,9,6.73.33h0A1.61,1.61,0,0,0,4.49.63a1.75,1.75,0,0,0-.2.35L1,8H1a1.6,1.6,0,0,0,.63,2.05L7,13.71c-10.45,23.17-8.13,40-.13,50.51C13.37,72.72,23.58,77,33.77,77s20.4-4.25,26.89-12.75c8-10.47,10.32-27.34-.13-50.51ZM57.26,56.23a2.41,2.41,0,1,1,2.4-2.41,2.4,2.4,0,0,1-2.4,2.41Zm-5,7.52a2.41,2.41,0,1,1,2.41-2.4,2.41,2.41,0,0,1-2.41,2.4Zm-6.77,5a2.41,2.41,0,1,1,2.41-2.4,2.41,2.41,0,0,1-2.41,2.4ZM38.88,71.9a2.41,2.41,0,1,1,2.4-2.4,2.4,2.4,0,0,1-2.4,2.4Zm-10,0a2.41,2.41,0,1,1,2.4-2.4,2.4,2.4,0,0,1-2.4,2.4Zm-8.3-3.18A2.41,2.41,0,1,1,23,66.32a2.41,2.41,0,0,1-2.41,2.4Zm-6.5-5a2.41,2.41,0,1,1,2.4-2.4,2.41,2.41,0,0,1-2.4,2.4ZM9.91,56.23a2.41,2.41,0,1,1,2.41-2.41,2.41,2.41,0,0,1-2.41,2.41Z"/></g></g></svg>